<mxfile host="app.diagrams.net" modified="2024-08-19T06:10:19.518Z" agent="Mozilla/5.0 (Macintosh; Intel Mac OS X 10_15_7) AppleWebKit/537.36 (KHTML, like Gecko) Chrome/127.0.0.0 Safari/537.36" version="24.0.7" etag="9D9cL1--DIWO4GlTmmls" type="github">
  <diagram name="第 1 页" id="m5ekQ7dxXABNXMWCmFb3">
    <mxGraphModel>
      <root>
        <mxCell id="0" />
        <mxCell id="1" parent="0" />
      </root>
    </mxGraphModel>
  </diagram>
</mxfile>
